# xmcd
#
# Track frame offsets:
#	150
#	13195
#	27350
#	37550
#	48380
#	60720
#	70012
#	80865
#	93175
#	107820
#
# Disc length: 1568 seconds
#
# Revision: 3
# Processed by: cddbd v1.5.2PL0 Copyright (c) Steve Scherf et al.
# Submitted via: audiograbber 1.83.01
#
DISCID=78061e0a
DTITLE=Various Artist - The Best Of Dueling Country Vol. 1
DYEAR=2003
DGENRE=Country
TTITLE0=Kenny Rogers And The First Edition - Ruby Don't Take Your Love To Town
TTITLE1=Frankie Laine - Don't Fence Me In
TTITLE2=Barbara Mandrell And The Melody Ranch Gang - Kaw-Liga
TTITLE3=Waylon Jennings - Sally Was A Good Old Girl
TTITLE4=Freddy Fender - Wasted Days And Wasted Nights
TTITLE5=Mickey Gilley - Susie Q
TTITLE6=Willie Nelson - Blame It On The Times
TTITLE7=Lynn Anderson - Stand By Your Man
TTITLE8=Johnny Paycheck - Green Green Grass Of Home
TTITLE9=Conway Twitty - It's Only Make Believe
EXTD=
EXTT0=
EXTT1=
EXTT2=
EXTT3=
EXTT4=
EXTT5=
EXTT6=
EXTT7=
EXTT8=
EXTT9=
PLAYORDER=
